<?xml version="1.0" encoding="utf-8"?>
<svg xmlns="http://www.w3.org/2000/svg" viewBox="8 10.6368 283.2444 279.2632" width="283.244pt" height="279.263pt">
    <g transform="matrix(0.10000000149011612, 0, 0, -0.10000000149011612, 0, 300)" fill="#00df82" stroke="none">
        <path d="M2860 2889 c-19 -4 -48 -10 -65 -12 -16 -3 -55 -10 -85 -16 -30 -6 -66 -13 -80 -16 -14 -3 -50 -9 -80 -15 -30 -6 -66 -12 -80 -15 -14 -3 -52 -10 -85 -15 -33 -6 -91 -17 -130 -25 -38 -8 -81 -17 -95 -19 -22 -4 -79 -15 -160 -31 -14 -3 -50 -9 -80 -15 -30 -6 -66 -12 -80 -15 -14 -3 -63 -12 -109 -20 -46 -8 -84 -16 -85 -17 -1 -2 -13 -19 -27 -38 -14 -19 -42 -59 -62 -87 -48 -69 -98 -140 -148 -211 -22 -31 -75 -107 -117 -169 -42 -62 -81 -112 -85 -113 -4 0 -20 9 -35 19 -22 16 -492 319 -571 369 -24 14 -26 13 -55 -20 -31 -36 -358 -397 -428 -473 -21 -22 -38 -44 -38 -49 0 -10 80 -1 159 19 31 8 67 16 81 19 105 19 333 68 354 75 14 6 27 7 30 3 5 -8 46 -121 51 -142 2 -8 27 -82 55 -165 58 -172 40 -150 270 -330 84 -66 178 -140 209 -166 31 -25 130 -103 221 -174 304 -238 276 -212 460 -437 25 -30 126 -152 224 -271 l179 -216 56 61 c31 34 68 75 83 91 l27 30 98 -43 c166 -73 227 -100 247 -111 12 -7 22 -7 28 -1 11 11 -186 348 -212 362 -15 7 -78 13 -307 26 -110 7 -111 7 -116 33 -2 14 -18 78 -35 141 -17 63 -42 159 -56 212 -47 178 -88 332 -107 406 -10 39 -28 106 -39 147 l-19 75 98 148 c54 81 137 208 186 282 49 74 203 308 343 520 140 212 257 390 259 396 7 18 -8 22 -47 13z m0 -38 c0 -6 -4 -12 -10 -16 -5 -3 -35 -45 -66 -93 -32 -48 -135 -204 -229 -347 -162 -246 -408 -619 -505 -767 l-44 -68 -17 63 c-9 34 -31 107 -49 162 -17 55 -36 116 -42 135 -5 19 -20 67 -33 105 -28 85 -98 306 -101 320 -5 20 -82 260 -89 278 -6 14 -2 17 23 17 17 0 59 7 94 15 35 8 79 17 98 20 19 3 58 10 85 15 69 14 91 18 155 30 30 6 66 12 80 15 14 3 52 10 85 16 33 5 128 24 210 40 83 16 164 32 180 34 17 3 57 11 90 19 77 17 85 18 85 7z m-1200 -259 c0 -9 12 -53 26 -97 14 -44 27 -84 28 -90 1 -5 15 -48 30 -95 15 -47 29 -92 31 -100 3 -14 18 -60 96 -307 17 -54 46 -150 66 -213 19 -63 39 -119 44 -125 5 -5 9 -11 9 -15 0 -3 -170 -2 -377 1 -208 3 -453 6 -545 5 -147 -1 -165 1 -153 14 7 8 52 71 100 140 49 69 104 148 124 175 19 28 60 86 91 130 31 44 112 159 180 255 68 96 149 212 179 257 57 84 71 97 71 65z m-966 -543 c6 -14 -6 -19 -76 -33 -46 -9 -105 -21 -133 -27 -27 -6 -61 -13 -75 -15 -96 -19 -254 -55 -261 -60 -24 -15 -3 15 50 70 69 72 102 108 258 281 l117 130 57 -165 c31 -91 60 -172 63 -181z m21 270 c55 -36 183 -119 285 -184 102 -65 187 -119 189 -121 2 -2 -19 -34 -46 -71 -70 -96 -184 -259 -225 -320 l-34 -52 -89 262 c-48 144 -108 319 -131 389 -24 71 -48 137 -55 149 -14 27 -13 27 106 -52z m876 -799 l399 0 -10 -22 c-5 -13 -30 -99 -55 -193 -25 -93 -50 -181 -55 -195 -4 -14 -23 -79 -41 -145 -18 -66 -33 -121 -35 -123 -2 -3 -121 90 -189 146 -11 10 -146 116 -300 237 -154 121 -289 228 -300 238 -11 10 -35 27 -52 38 -18 12 -33 23 -33 26 0 4 61 3 137 0 75 -4 315 -7 534 -7z m423 -82 c2 -14 16 -70 31 -124 15 -55 29 -106 30 -114 2 -8 16 -60 30 -115 15 -55 28 -104 29 -110 2 -5 8 -30 15 -55 7 -25 14 -52 16 -60 2 -8 17 -69 35 -135 35 -135 55 -208 99 -376 16 -63 35 -129 40 -145 l11 -29 -28 34 c-21 27 -308 373 -410 496 -10 11 -34 41 -55 66 l-37 46 19 64 c11 35 49 174 86 309 80 295 76 282 80 278 2 -2 6 -15 9 -30z m386 -952 c41 -3 119 -8 172 -12 l97 -7 -52 -55 c-77 -82 -76 -80 -157 -172 -41 -47 -76 -84 -79 -83 -3 1 -6 14 -8 28 -3 22 -61 242 -79 298 -5 15 -2 18 13 14 10 -3 52 -8 93 -11z m452 -288 c23 -33 20 -34 -24 -10 -18 10 -85 40 -148 67 -63 27 -116 49 -118 50 -1 1 23 30 55 65 32 34 62 68 66 76 6 10 28 -19 79 -103 39 -65 79 -130 90 -145z"
              style="fill: rgb(13, 47, 43);"/>
        <path d="M2568 2763 c7 -3 16 -2 19 1 4 3 -2 6 -13 5 -11 0 -14 -3 -6 -6z" style="fill: rgb(13, 47, 43);"/>
        <path d="M1528 1483 c7 -3 16 -2 19 1 4 3 -2 6 -13 5 -11 0 -14 -3 -6 -6z" style="fill: rgb(13, 47, 43);"/>
        <path d="M2350 560 c0 -5 5 -10 11 -10 5 0 7 5 4 10 -3 6 -8 10 -11 10 -2 0 -4 -4 -4 -10z"
              style="fill: rgb(13, 47, 43);"/>
    </g>
</svg>